<svg xmlns="http://www.w3.org/2000/svg" viewBox="0 0 1279 374.47">
    <path
        d="M682.49 466.07V276.59a108.61 108.61 0 0 1 20.94 11.53Q739 313.37 739 364.41q0 28.3-8.88 51a90.37 90.37 0 0 1-28.3 38.29 113.33 113.33 0 0 1-19.28 12.32Zm0-254.81h426q26.64 0 41.34 11.38t14.7 30.8q0 19.41-14.7 31.07t-41.34 11.65H788.88v189.77h114.31v-94.88h194.2q43.29 0 77.13-10t57.48-27.74a117.28 117.28 0 0 0 35.79-43q12.19-25.24 12.2-56.32t-12.2-56.6a122.58 122.58 0 0 0-35.52-43.83q-23.29-18.31-57.15-28.58t-77.13-10.26h-397.6L682.49 138Zm-413.34-70.94q3.17-2.88 6.57-5.55A133.18 133.18 0 0 1 304.29 118h-35.14v22.34Zm0 276.14 20.88-27v-58.79a119.7 119.7 0 0 1-18.08-12c-.95-.76-1.88-1.54-2.8-2.33v100.12ZM682.49 138v73.3H626l56.49-73.3Zm0 138.63v189.44a160.13 160.13 0 0 1-30.38 11.53q-30.24 8.34-72.41 8.33H269.15v-45.45l20.88-27 14.7-19 3.08-4h280.76q20.53 0 30-6.38t9.43-20.8q0-14.43-9.43-20.53t-30-6.1h-202q-36.08 0-62.15-7.77a151.36 151.36 0 0 1-19.72-7.32 117.83 117.83 0 0 1-14.7-8 100.89 100.89 0 0 1-8.86-6.36 89.8 89.8 0 0 1-12-11.66v-134a96.44 96.44 0 0 1 15.63-15.29q19.14-15 49.38-23.31a207.84 207.84 0 0 1 24.33-4.96h320.85l-71.84 93.28H397.7q-15.3 0-24.59 3.26a30.84 30.84 0 0 0-5.1 2.3 18.36 18.36 0 0 0-8.9 12.4 32.85 32.85 0 0 0-.81 7.57q0 14.43 9.71 20.25t29.69 5.83h202q50.3-.02 82.79 13.7ZM243 176.9a105 105 0 0 1 26.18-36.58V118H75.3L.94 214.52h174.24v274.67h37.73l56.24-72.73V316.37a99.69 99.69 0 0 1-27-37c-6.61-15.66-9.48-32.33-9.48-49.28 0-18.32 3.11-36.34 10.34-53.23Zm26.18-15.26v134a83.78 83.78 0 0 1-13.5-21.91q-8.33-19.69-8.32-43.56 0-26.07 9.15-47.44a89.24 89.24 0 0 1 12.67-21.05Zm0 278.84v45.45H234Z"
        transform="translate(-.94 -114.72)" fill="#0f5381" />
</svg>
